<svg width="32" height="32" viewBox="0 0 32 32" fill="none" xmlns="http://www.w3.org/2000/svg">
<circle cx="16" cy="16" r="16" fill="#D2D2D2"/>
<path d="M6.17147 21.2998C5.43238 19.9655 5.11783 19.1345 4.80004 17.6427C4.654 16.9571 4.57144 15.5856 4.57144 14.8998C4.57144 14.214 4.64101 12.8428 4.80004 12.157C5.1258 10.7521 5.33791 9.90514 6.17147 8.72838C6.93851 7.64554 7.60747 7.2161 8.68576 6.44267C9.91882 5.55822 10.1903 5.45973 11.6572 5.07128L11.6661 5.06891C13.2987 4.6366 13.8546 4.48939 15.5429 4.61421C16.89 4.7138 17.1429 4.61414 18.0572 4.84278C18.9715 5.07142 20.6164 5.36104 21.0286 5.75703C21.5313 6.24004 21.9174 6.70772 22.1715 7.35695C22.4642 8.10508 22.4 8.61085 22.4 9.41421C22.4 10.3068 22.4167 10.6131 22.1714 11.4714C22.0069 12.0471 21.7144 12.614 21.4858 13.0712C21.2572 13.5285 21.0727 13.6323 20.8 13.9856C20.4509 14.4381 20.2899 14.7243 19.8858 15.1284C19.6572 15.357 19.2 15.357 18.9715 15.357C18.5723 15.357 18.0572 14.8998 18.0572 14.8998C18.0572 14.8998 18.1422 15.8808 18.0572 16.4998C17.9688 17.1436 17.8931 17.5198 17.6 18.0998C17.229 18.8344 16.7887 19.0969 16.2286 19.6998C15.7131 20.2547 15.4468 20.5958 14.8572 21.0712C14.3561 21.4753 14.086 21.7532 13.4858 21.9855C12.4868 22.3722 9.92962 21.2884 10.7429 21.9855C11.046 22.2453 11.3001 22.4928 11.6572 22.6714C12.1928 22.9391 12.4694 23.143 13.0286 23.3571C13.6254 23.5855 14.1212 23.5988 14.8572 23.5855C15.7039 23.5703 16.1605 23.2857 16.9143 22.8998C17.4873 22.6065 17.8528 22.4618 18.2858 21.9855C18.6359 21.6004 18.7519 21.3146 18.9715 20.8427C19.2097 20.3308 19.1572 19.9662 19.4286 19.4712C19.6432 19.0799 19.8966 18.5571 20.3429 18.5571C20.7892 18.5571 20.8 19.0249 20.8 19.4712C20.8 19.9285 20.5714 21.0712 20.5714 21.0712C20.5714 21.0712 20.2756 22.3767 19.8858 23.1285C19.5323 23.8102 19.3132 23.9858 18.7429 24.4999C17.9418 25.2221 17.2872 25.4359 16.2286 25.6427C15.3525 25.8138 15.0636 25.901 14.1715 25.8712C13.0083 25.8325 12.0918 25.7293 10.9714 25.4142C9.4683 24.9915 8.64397 24.4642 7.54287 23.3571C6.77452 22.5845 6.69943 22.2529 6.17147 21.2998Z" fill="#999999"/>
<path d="M8.22857 16.9571C8.21595 15.6064 8.40903 14.7813 8.91427 13.5286C9.46187 12.1708 9.84115 11.1021 11.2 10.5571C12.1942 10.1584 12.9239 10.2267 13.9428 10.5571C14.7439 10.8169 15.134 11.1497 15.7714 11.7C16.3944 12.2378 16.7075 12.6016 17.1429 13.3C17.6514 14.1158 18.0571 14.6714 18.2857 15.5857C18.5326 16.573 18.0699 17.4257 17.6 18.3285C17.0455 19.3938 16.4467 20.052 15.5429 20.8428C14.7229 21.5603 14.3061 21.9194 13.2572 22.2142C12.3978 22.4558 11.576 22.3061 10.7428 21.9857C9.80025 21.6232 9.39902 21.0431 8.91426 20.1571C8.59966 19.5822 8.54915 19.0819 8.45715 18.5571C8.45715 18.5571 8.23425 17.564 8.22857 16.9571Z" fill="#666666"/>
<path d="M17.1428 11.7C16.7417 11.1887 16.6857 10.1 16.6857 10.1C16.6857 10.1 16.6379 8.981 17.1428 8.72852C17.4622 8.56884 17.7107 8.64193 18.0571 8.72852C18.7919 8.91222 19.28 9.35723 19.4286 10.1C19.4811 10.3625 19.4779 10.5225 19.4286 10.7857C19.355 11.178 19.2232 11.3902 18.9714 11.7C18.69 12.0464 18.5034 12.3857 18.0571 12.3857C17.6108 12.3857 17.4183 12.0511 17.1428 11.7Z" fill="#666666"/>
</svg>
