<?xml version="1.0" encoding="utf-8"?>
<!-- Generator: Adobe Illustrator 26.1.0, SVG Export Plug-In . SVG Version: 6.00 Build 0)  -->
<svg version="1.1" id="Слой_1" xmlns="http://www.w3.org/2000/svg" xmlns:xlink="http://www.w3.org/1999/xlink" x="0px" y="0px"
	 viewBox="0 0 400 400" style="enable-background:new 0 0 400 400;" xml:space="preserve">
<style type="text/css">
	.st0{fill:none;stroke:#534741;stroke-width:7;stroke-linecap:round;stroke-miterlimit:10;}
	.st1{fill:#FFFFFF;stroke:#736357;stroke-width:3;stroke-miterlimit:10;}
	.st2{fill:#333333;}
	.st3{fill:none;stroke:#998675;stroke-width:5;stroke-linecap:round;stroke-miterlimit:10;}
	.st4{fill:none;stroke:#534741;stroke-width:5;stroke-linecap:round;stroke-miterlimit:10;}
	.st5{fill:#C7B299;}
	.st6{fill:#423832;}
</style>
<rect class="st5" width="400" height="400"/>
<g>
	<g>
		<path class="st6" d="M242,57.74h-7.98L211.48,350h-25.52L164.98,57.74H157V50h41.64v7.74h-7.98l16.75,256.69l18.63-256.69h-8.14
			V50H242V57.74z"/>
	</g>
	<g>
		<path class="st6" d="M135,306.88c0,11.83-4.15,21.97-12.44,30.43C114.27,345.77,104.25,350,92.5,350
			c-11.63,0-21.62-4.23-29.97-12.69C54.18,328.85,50,318.71,50,306.88V93.12c0-11.83,4.18-21.97,12.53-30.43S80.87,50,92.5,50
			c11.75,0,21.77,4.23,30.06,12.69S135,81.29,135,93.12v47.66h-28.33V74.55c0-4.67-1.38-8.67-4.15-11.97
			c-2.76-3.3-6.1-4.95-10.02-4.95s-7.26,1.65-10.02,4.95c-2.76,3.3-4.15,7.29-4.15,11.97v250.89c0,4.68,1.38,8.67,4.15,11.97
			s6.1,4.95,10.02,4.95s7.26-1.65,10.02-4.95s4.15-7.29,4.15-11.97v-66.23H135V306.88z"/>
	</g>
	<g>
		<path class="st6" d="M349,306.88c0,11.97-4.06,22.15-12.18,30.54c-8.12,8.39-18.2,12.59-30.23,12.59
			c-12.15,0-22.29-4.2-30.41-12.59c-8.12-8.39-12.18-18.57-12.18-30.54v-47.66h29.6v66.23c0,11.28,4.33,16.92,12.99,16.92
			c8.54,0,12.81-5.64,12.81-16.92v-51.38c0-14.03-2.95-26.34-8.84-36.93l-37-65.82c-6.38-11.42-9.56-24.07-9.56-37.96V93.12
			c0-11.97,4.06-22.15,12.18-30.54C284.3,54.2,294.44,50,306.59,50c12.03,0,22.11,4.2,30.23,12.59C344.94,70.98,349,81.16,349,93.12
			v47.66h-29.6V74.55c0-11.28-4.27-16.92-12.81-16.92c-8.66,0-12.99,5.64-12.99,16.92v49.52c0,13.9,2.95,26.13,8.84,36.73l37,65.82
			c6.38,11.42,9.56,24.14,9.56,38.17V306.88z"/>
	</g>
</g>
</svg>
