<?xml version="1.0" encoding="utf-8"?>
<!-- Generator: Adobe Illustrator 26.1.0, SVG Export Plug-In . SVG Version: 6.00 Build 0)  -->
<svg version="1.1" id="Слой_1" xmlns="http://www.w3.org/2000/svg" xmlns:xlink="http://www.w3.org/1999/xlink" x="0px" y="0px"
	 viewBox="0 0 400 400" style="enable-background:new 0 0 400 400;" xml:space="preserve">
<style type="text/css">
	.st0{fill:none;stroke:#534741;stroke-width:7;stroke-linecap:round;stroke-miterlimit:10;}
	.st1{fill:#FFFFFF;stroke:#736357;stroke-width:3;stroke-miterlimit:10;}
	.st2{fill:#333333;}
	.st3{fill:none;stroke:#998675;stroke-width:5;stroke-linecap:round;stroke-miterlimit:10;}
	.st4{fill:none;stroke:#534741;stroke-width:5;stroke-linecap:round;stroke-miterlimit:10;}
	.st5{fill:#C7B299;}
	.st6{fill:#423832;}
</style>
<g>
	<path class="st0" d="M-251.51,143.43c-4.89-51.48-47.19-89.9-94.06-89.94c-53.77-0.04-93.87,50.42-93.06,88.94
		c0.09,4.14,0.57,27.29,17.01,42.97c9.81,9.36,22.42,13.3,31.02,15.99c10.72,3.35,19.82,4.27,27.02,5c9,0.91,9.49,0.25,27.02,1
		c9.71,0.41,18.21,0.79,29.02,2c12.05,1.34,18.07,2.02,25.02,4c8.35,2.38,19.42,5.54,30.02,14.99c10.7,9.54,15.16,20.34,17.01,24.98
		c1.25,3.13,5.04,13.28,5,26.98c-0.05,20.77-8.86,35.76-12.01,40.97c-13.8,22.83-34.69,32.34-45.87,37.44
		c-5.41,2.46-33.1,14.59-69.21,9.53c-9.61-1.34-25.28-3.7-42.42-14.11c-20.94-12.71-31.87-30.03-36.63-38.86"/>
	<g>
		<g>
			<path class="st1" d="M-369.78,109.48l17.21,39.39c-4.51,2.54-10.01,4.05-15.98,4.05c-15.22,0-27.57-9.73-27.57-21.74
				C-396.11,119.5-384.43,110-369.78,109.48z"/>
			<ellipse class="st2" cx="-376.6" cy="131.43" rx="8.01" ry="7.99"/>
			<path class="st3" d="M-416.63,31.5c3.82,1.77,8.36,4.29,13.07,7.89c3.15,2.41,5.78,4.85,7.94,7.1
				c3.08,3.38,6.72,8.02,10.01,13.99c3.76,6.83,5.83,13.16,7,17.99c2.94,10.34,5.88,20.68,8.82,31.01
				c8.73,19.64,17.47,39.29,26.2,58.93"/>
		</g>
		<g>
			<path class="st1" d="M-317.37,109.48l-17.21,39.39c4.51,2.54,10.01,4.05,15.98,4.05c15.22,0,27.57-9.73,27.57-21.74
				C-291.04,119.5-302.73,110-317.37,109.48z"/>
			<ellipse class="st2" cx="-310.56" cy="131.43" rx="8.01" ry="7.99"/>
			<path class="st3" d="M-270.53,31.5c-3.82,1.77-8.36,4.29-13.07,7.89c-3.15,2.41-5.78,4.85-7.94,7.1
				c-3.08,3.38-6.72,8.02-10.01,13.99c-3.76,6.83-5.83,13.16-7,17.99c-2.94,10.34-5.88,20.68-8.82,31.01
				c-8.73,19.64-17.47,39.29-26.2,58.93"/>
		</g>
	</g>
	<path class="st4" d="M-360.59,287.33c-33.48,20.23-67.28,13.29-77.05-4c-7.13-12.61-0.34-35.05,14.01-45.97
		c15.6-11.86,36.77-9.08,52.04,8.99"/>
</g>
<rect class="st5" width="400" height="400"/>
<g>
	<g>
		<path class="st6" d="M242,57.74h-7.98L211.48,350h-25.52L164.98,57.74H157V50h41.64v7.74h-7.98l16.75,256.69l18.63-256.69h-8.14
			V50H242V57.74z"/>
	</g>
	<g>
		<path class="st6" d="M135,306.88c0,11.83-4.15,21.97-12.44,30.43C114.27,345.77,104.25,350,92.5,350
			c-11.63,0-21.62-4.23-29.97-12.69C54.18,328.85,50,318.71,50,306.88V93.12c0-11.83,4.18-21.97,12.53-30.43S80.87,50,92.5,50
			c11.75,0,21.77,4.23,30.06,12.69S135,81.29,135,93.12v47.66h-28.33V74.55c0-4.67-1.38-8.67-4.15-11.97
			c-2.76-3.3-6.1-4.95-10.02-4.95s-7.26,1.65-10.02,4.95c-2.76,3.3-4.15,7.29-4.15,11.97v250.89c0,4.68,1.38,8.67,4.15,11.97
			s6.1,4.95,10.02,4.95s7.26-1.65,10.02-4.95s4.15-7.29,4.15-11.97v-66.23H135V306.88z"/>
	</g>
	<g>
		<path class="st6" d="M349,306.88c0,11.97-4.06,22.15-12.18,30.54c-8.12,8.39-18.2,12.59-30.23,12.59
			c-12.15,0-22.29-4.2-30.41-12.59c-8.12-8.39-12.18-18.57-12.18-30.54v-47.66h29.6v66.23c0,11.28,4.33,16.92,12.99,16.92
			c8.54,0,12.81-5.64,12.81-16.92v-51.38c0-14.03-2.95-26.34-8.84-36.93l-37-65.82c-6.38-11.42-9.56-24.07-9.56-37.96V93.12
			c0-11.97,4.06-22.15,12.18-30.54C284.3,54.2,294.44,50,306.59,50c12.03,0,22.11,4.2,30.23,12.59C344.94,70.98,349,81.16,349,93.12
			v47.66h-29.6V74.55c0-11.28-4.27-16.92-12.81-16.92c-8.66,0-12.99,5.64-12.99,16.92v49.52c0,13.9,2.95,26.13,8.84,36.73l37,65.82
			c6.38,11.42,9.56,24.14,9.56,38.17V306.88z"/>
	</g>
</g>
</svg>
