<svg width="70" height="70" viewBox="0 0 70 70" fill="none" xmlns="http://www.w3.org/2000/svg">
<circle cx="35" cy="35" r="35" fill="#D2D2D2"/>
<path d="M13.5001 46.5934C11.8833 43.6746 11.1952 41.8568 10.5001 38.5934C10.1806 37.0936 10 34.0936 10 32.5934C10 31.0931 10.1522 28.0936 10.5001 26.5934C11.2127 23.5204 11.6766 21.6675 13.5001 19.0934C15.178 16.7247 16.6413 15.7852 19.0001 14.0934C21.6974 12.1586 22.2912 11.9432 25.5001 11.0935L25.5196 11.0883C29.0909 10.1426 30.3069 9.82058 34 10.0936C36.9468 10.3115 37.5001 10.0935 39.5001 10.5936C41.5001 11.0938 45.0984 11.7273 46 12.5935C47.0997 13.6501 47.9443 14.6732 48.5001 16.0934C49.1404 17.7299 49 18.8363 49 20.5936C49 22.5462 49.0364 23.2161 48.5 25.0936C48.1402 26.3531 47.5001 27.5931 47.0001 28.5934C46.5 29.5936 46.0965 29.8207 45.5001 30.5936C44.7363 31.5835 44.3842 32.2093 43.5001 33.0934C43 33.5934 42 33.5934 41.5001 33.5934C40.6268 33.5934 39.5001 32.5934 39.5001 32.5934C39.5001 32.5934 39.6859 34.7392 39.5001 36.0934C39.3068 37.5017 39.141 38.3246 38.5001 39.5934C37.6883 41.2002 36.7253 41.7745 35.5001 43.0934C34.3724 44.3072 33.7898 45.0533 32.5001 46.0934C31.404 46.9773 30.8132 47.5851 29.5001 48.0934C27.3149 48.9392 21.721 46.5685 23.5001 48.0934C24.1631 48.6617 24.719 49.2031 25.5001 49.5936C26.6716 50.1794 27.2767 50.6253 28.5 51.0936C29.8054 51.5934 30.8902 51.6224 32.5001 51.5934C34.3522 51.56 35.3511 50.9375 37.0001 50.0934C38.2534 49.4518 39.0529 49.1352 40.0001 48.0934C40.7659 47.2509 41.0197 46.6256 41.5001 45.5934C42.0211 44.4737 41.9063 43.6762 42.5001 42.5934C42.9695 41.7373 43.5237 40.5936 44.5 40.5936C45.4763 40.5936 45.5001 41.6171 45.5001 42.5934C45.5001 43.5936 45 46.0934 45 46.0934C45 46.0934 44.3528 48.9491 43.5001 50.5936C42.7269 52.0848 42.2476 52.4689 41 53.5936C39.2477 55.1735 37.8157 55.6411 35.5001 56.0934C33.5837 56.4677 32.9516 56.6584 31.0001 56.5934C28.4556 56.5086 26.4508 56.2829 24 55.5936C20.7119 54.6688 18.9086 53.5155 16.5 51.0936C14.8192 49.4037 14.655 48.6783 13.5001 46.5934Z" fill="#999999"/>
<path d="M18 37.0936C17.9724 34.1389 18.3947 32.3341 19.4999 29.5937C20.6978 26.6236 21.5275 24.2857 24.4999 23.0937C26.6747 22.2215 28.2711 22.3708 30.4999 23.0937C32.2522 23.662 33.1055 24.39 34.4999 25.5937C35.8626 26.7701 36.5477 27.5659 37.5 29.0936C38.6125 30.8783 39.4999 32.0936 40 34.0936C40.54 36.2535 39.5279 38.1188 38.5 40.0936C37.2871 42.4238 35.977 43.8638 34 45.5936C32.2062 47.1631 31.2945 47.9486 29 48.5936C27.1202 49.1221 25.3224 48.7946 23.4999 48.0937C21.438 47.3007 20.5603 46.0317 19.4999 44.0937C18.8117 42.836 18.7012 41.7416 18.5 40.5936C18.5 40.5936 18.0124 38.4213 18 37.0936Z" fill="#666666"/>
<path d="M37.4999 25.5937C36.6225 24.4752 36.5 22.0936 36.5 22.0936C36.5 22.0936 36.3954 19.6459 37.4999 19.0936C38.1985 18.7443 38.7422 18.9042 39.4999 19.0936C41.1073 19.4955 42.1751 20.4689 42.5 22.0936C42.6149 22.668 42.6079 23.0179 42.5 23.5936C42.3391 24.4519 42.0507 24.9159 41.5 25.5937C40.8843 26.3514 40.4762 27.0936 39.4999 27.0936C38.5236 27.0936 38.1025 26.3618 37.4999 25.5937Z" fill="#666666"/>
</svg>
