<svg width="50" height="50" viewBox="0 0 50 50" fill="none" xmlns="http://www.w3.org/2000/svg">
<g clip-path="url(#clip0_329_821)">
<path d="M44.4225 5.57418C36.9977 -1.85204 24.9165 -1.85204 17.4917 5.57418C13.2354 9.83118 11.3465 15.6949 12.049 21.3817C4.38154 28.3258 0 38.1762 0 48.5394V50.0045H1.46484C11.8262 50.0045 21.6748 45.6222 28.6177 37.9534C34.3034 38.6561 40.1662 36.7669 44.4225 32.5098C48.0192 28.9124 50 24.1295 50 19.042C50 13.9546 48.0192 9.17159 44.4225 5.57418ZM2.96289 47.0411C3.33633 38.6307 6.84277 30.6827 12.7765 24.7353C13.1097 25.7966 13.5388 26.8387 14.0666 27.8486C11.1816 31.4453 9.12773 35.6751 8.10371 40.1439L7.58193 42.421L9.85879 41.8992C14.3267 40.8751 18.5562 38.8204 22.1521 35.9352C23.1618 36.4631 24.2036 36.8923 25.2647 37.2256C19.3184 43.1604 11.3718 46.6675 2.96289 47.0411ZM42.3509 30.4378C37.1351 35.6544 29.0694 36.6699 22.7367 32.9074L21.832 32.3699L21.034 33.0558C18.2771 35.4251 15.0664 37.2343 11.6381 38.3643C12.7678 34.9354 14.5768 31.7243 16.9457 28.9668L17.6314 28.1686L17.094 27.2637C13.3322 20.9297 14.3476 12.8627 19.5633 7.64593C22.7046 4.50416 26.8309 2.93318 30.9571 2.93318C35.0834 2.93318 39.2097 4.50416 42.351 7.64593C45.3942 10.6901 47.0703 14.7371 47.0703 19.042C47.0703 23.3469 45.3942 27.3939 42.3509 30.4378Z" fill="#313131"/>
<path d="M42.8158 15.47C41.1024 13.7561 38.3143 13.7561 36.601 15.47C34.8876 17.1837 34.8876 19.9722 36.601 21.6858C37.4576 22.5427 38.583 22.9711 39.7084 22.9711C40.8338 22.9711 41.959 22.5427 42.8158 21.6858C44.5292 19.9721 44.5292 17.1836 42.8158 15.47ZM40.7442 19.6138C40.173 20.185 39.2437 20.185 38.6725 19.6138C38.3959 19.3371 38.2434 18.9691 38.2434 18.5779C38.2434 18.1866 38.3959 17.8186 38.6725 17.5419C38.9582 17.2562 39.3332 17.1134 39.7084 17.1134C40.0835 17.1134 40.4587 17.2563 40.7441 17.5419C41.3152 18.1131 41.3152 19.0426 40.7442 19.6138Z" fill="#313131"/>
<path d="M34.5294 7.18223C32.8161 5.46865 30.028 5.46845 28.3146 7.18223C26.6012 8.89602 26.6012 11.6844 28.3146 13.3982C29.1713 14.255 30.2967 14.6835 31.422 14.6835C32.5474 14.6835 33.6727 14.255 34.5294 13.3982C36.2428 11.6844 36.2428 8.89602 34.5294 7.18223ZM32.4578 11.3262C32.1811 11.6029 31.8133 11.7554 31.422 11.7554C31.0308 11.7554 30.6629 11.6029 30.3862 11.3262C29.815 10.7549 29.815 9.82548 30.3862 9.25418C30.6718 8.96859 31.047 8.82579 31.4221 8.82579C31.7972 8.82579 32.1723 8.96859 32.4578 9.25418C32.7345 9.53089 32.8868 9.89893 32.8868 10.2901C32.8868 10.6815 32.7345 11.0495 32.4578 11.3262Z" fill="#313131"/>
</g>
<defs>
<clipPath id="clip0_329_821">
<rect width="50" height="50" fill="white"/>
</clipPath>
</defs>
</svg>
